# xmcd
#
# Track frame offsets:
#       150
#       18463
#       34353
#       56676
#       71657
#       82477
#       97412
#       112617
#       135701
#       151090
#       170254
#       188590
#       210628
#
# Disc length: 2986 seconds
#
# Revision: 0
# Processed by: cddbd v1.5.2PL0 Copyright (c) Steve Scherf et al.
# Submitted via: WaveLab 6.11
#
DISCID=b30ba80d
DTITLE=Nemcsak Berry - Beledõlünk a rockba
DYEAR=2015
DGENRE=
TTITLE0=01. Beledõlünk a rockba
TTITLE1=02. Southern-Déli dal
TTITLE2=03. Túl az óperencián
TTITLE3=04. Indulj el!
TTITLE4=05. Itt lakom én
TTITLE5=06. Szép lányok
TTITLE6=07. Asszony
TTITLE7=08. Nézz rám
TTITLE8=09. Jövõre ugyan itt
TTITLE9=10. Nehéz a kõ
TTITLE10=11. Maradj még
TTITLE11=12. Nomád
TTITLE12=13. Magányos Cowboy
EXTD=
EXTT0=
EXTT1=
EXTT2=
EXTT3=
EXTT4=
EXTT5=
EXTT6=
EXTT7=
EXTT8=
EXTT9=
EXTT10=
EXTT11=
EXTT12=
PLAYORDER=
